<svg xmlns="http://www.w3.org/2000/svg" xmlns:xlink="http://www.w3.org/1999/xlink" width="1000" zoomAndPan="magnify" viewBox="0 0 750 299.999988" height="400" preserveAspectRatio="xMidYMid meet" version="1.0"><defs><g/></defs><rect x="-75" width="900" fill="#ffffff" y="-29.999999" height="359.999986" fill-opacity="1"/><rect x="-75" width="900" fill="#ffffff" y="-29.999999" height="359.999986" fill-opacity="1"/><g fill="#ff3131" fill-opacity="1"><g transform="translate(0.000015, 208.525167)"><g><path d="M 69 -108.296875 C 78.625 -108.296875 86.429688 -107.0625 92.421875 -104.59375 C 98.410156 -102.132812 103.140625 -98.328125 106.609375 -93.171875 C 108.847656 -89.703125 110.582031 -85.785156 111.8125 -81.421875 C 113.039062 -77.054688 113.65625 -72.019531 113.65625 -66.3125 C 113.65625 -61.382812 113.207031 -56.457031 112.3125 -51.53125 C 111.414062 -46.613281 110.15625 -41.890625 108.53125 -37.359375 C 106.914062 -32.828125 104.957031 -28.570312 102.65625 -24.59375 C 100.363281 -20.625 97.820312 -17.128906 95.03125 -14.109375 C 88.3125 -6.710938 79.75 -2.007812 69.34375 0 C 72.25 2.90625 75.601562 5.28125 79.40625 7.125 C 83.21875 8.976562 87.140625 10.351562 91.171875 11.25 C 86.128906 14.9375 81.648438 18.238281 77.734375 21.15625 C 76.054688 22.382812 74.40625 23.585938 72.78125 24.765625 C 71.15625 25.941406 69.726562 27.003906 68.5 27.953125 C 67.269531 28.898438 66.234375 29.625 65.390625 30.125 C 64.554688 30.632812 64.140625 30.890625 64.140625 30.890625 C 60.554688 28.648438 57.445312 26.1875 54.8125 23.5 C 52.1875 20.8125 49.945312 18.097656 48.09375 15.359375 C 46.25 12.617188 44.738281 9.988281 43.5625 7.46875 C 42.394531 4.945312 41.472656 2.738281 40.796875 0.84375 C 34.191406 0.28125 28.734375 -1.003906 24.421875 -3.015625 C 20.117188 -5.035156 16.566406 -7.835938 13.765625 -11.421875 C 11.304688 -14.554688 9.375 -18.53125 7.96875 -23.34375 C 6.570312 -28.15625 5.875 -34.195312 5.875 -41.46875 C 5.875 -53.894531 8.082031 -65.003906 12.5 -74.796875 C 16.925781 -84.585938 23.222656 -92.335938 31.390625 -98.046875 C 36.316406 -101.515625 41.800781 -104.085938 47.84375 -105.765625 C 53.894531 -107.453125 60.945312 -108.296875 69 -108.296875 Z M 50.03125 -10.40625 C 52.601562 -10.40625 55.035156 -11.550781 57.328125 -13.84375 C 59.628906 -16.144531 61.757812 -19.222656 63.71875 -23.078125 C 65.675781 -26.941406 67.460938 -31.335938 69.078125 -36.265625 C 70.703125 -41.191406 72.070312 -46.285156 73.1875 -51.546875 C 74.3125 -56.804688 75.179688 -62.035156 75.796875 -67.234375 C 76.410156 -72.441406 76.71875 -77.171875 76.71875 -81.421875 C 76.71875 -87.242188 76.128906 -91.242188 74.953125 -93.421875 C 73.785156 -95.609375 72.082031 -96.703125 69.84375 -96.703125 C 67.269531 -96.703125 64.804688 -95.582031 62.453125 -93.34375 C 60.097656 -91.101562 57.882812 -88.109375 55.8125 -84.359375 C 53.75 -80.609375 51.90625 -76.300781 50.28125 -71.4375 C 48.65625 -66.570312 47.253906 -61.5625 46.078125 -56.40625 C 44.910156 -51.257812 44.015625 -46.164062 43.390625 -41.125 C 42.773438 -36.09375 42.46875 -31.453125 42.46875 -27.203125 C 42.46875 -20.816406 43.164062 -16.421875 44.5625 -14.015625 C 45.96875 -11.609375 47.789062 -10.40625 50.03125 -10.40625 Z M 50.03125 -10.40625 "/></g></g></g><g fill="#ff3131" fill-opacity="1"><g transform="translate(111.649406, 208.525167)"><g><path d="M 62.625 -72.1875 L 96.875 -72.1875 L 81.421875 0 L 54.234375 0 L 51.203125 -10.75 L 50.203125 -10.75 C 47.285156 -7.28125 43.335938 -4.394531 38.359375 -2.09375 C 33.378906 0.195312 28.375 1.34375 23.34375 1.34375 C 16.625 1.34375 11.359375 -0.359375 7.546875 -3.765625 C 3.742188 -7.179688 1.84375 -11.632812 1.84375 -17.125 C 1.84375 -19.925781 2.316406 -23.421875 3.265625 -27.609375 C 4.222656 -31.804688 5.09375 -35.753906 5.875 -39.453125 L 12.921875 -72.1875 L 47.015625 -72.1875 L 38.609375 -32.90625 C 38.390625 -32.007812 38.164062 -30.945312 37.9375 -29.71875 C 37.71875 -28.488281 37.492188 -27.285156 37.265625 -26.109375 C 37.046875 -24.929688 36.851562 -23.8125 36.6875 -22.75 C 36.519531 -21.6875 36.4375 -20.816406 36.4375 -20.140625 C 36.4375 -18.460938 36.796875 -17.035156 37.515625 -15.859375 C 38.242188 -14.691406 39.5625 -14.109375 41.46875 -14.109375 C 43.476562 -14.109375 45.378906 -14.773438 47.171875 -16.109375 C 48.960938 -17.453125 50.363281 -18.742188 51.375 -19.984375 Z M 62.625 -72.1875 "/></g></g></g><g fill="#ff3131" fill-opacity="1"><g transform="translate(206.509372, 208.525167)"><g><path d="M 32.40625 0 L -1.671875 0 L 13.59375 -72.1875 L 48.015625 -72.1875 Z M 52.375 -94.1875 C 52.375 -91.613281 51.84375 -89.375 50.78125 -87.46875 C 49.71875 -85.5625 48.316406 -83.9375 46.578125 -82.59375 C 44.847656 -81.257812 42.863281 -80.253906 40.625 -79.578125 C 38.382812 -78.910156 36.09375 -78.578125 33.75 -78.578125 C 29.269531 -78.578125 25.519531 -79.640625 22.5 -81.765625 C 19.476562 -83.890625 17.96875 -87.25 17.96875 -91.84375 C 17.96875 -94.300781 18.46875 -96.507812 19.46875 -98.46875 C 20.476562 -100.425781 21.847656 -102.046875 23.578125 -103.328125 C 25.316406 -104.617188 27.332031 -105.597656 29.625 -106.265625 C 31.925781 -106.941406 34.304688 -107.28125 36.765625 -107.28125 C 41.128906 -107.28125 44.820312 -106.21875 47.84375 -104.09375 C 50.863281 -101.96875 52.375 -98.664062 52.375 -94.1875 Z M 52.375 -94.1875 "/></g></g></g><g fill="#ff3131" fill-opacity="1"><g transform="translate(252.344229, 208.525167)"><g><path d="M 41.46875 -41.640625 L 80.59375 -72.1875 L 102.75 -72.1875 L 69.34375 -44.828125 L 94.359375 0 L 56.75 0 L 39.625 -33.75 L 32.578125 0 L -1.671875 0 L 22.15625 -112.828125 L 56.578125 -112.828125 Z M 41.46875 -41.640625 "/></g></g></g><g fill="#2853d6" fill-opacity="1"><g transform="translate(339.285426, 205.69529)"><g><path d="M 93.453125 -85.78125 L 68.75 -85.78125 L 50.484375 0 L 17.34375 0 L 35.59375 -85.78125 L 11.203125 -85.78125 L 13.96875 -97.4375 L 96.0625 -97.4375 Z M 93.453125 -85.78125 "/></g></g></g><g fill="#2853d6" fill-opacity="1"><g transform="translate(421.381098, 205.69529)"><g><path d="M 12.4375 -65.984375 L 37.4375 -65.984375 L 39.75 -54.46875 L 40.8125 -54.46875 C 43.164062 -58.15625 46.179688 -61.273438 49.859375 -63.828125 C 53.546875 -66.390625 58.410156 -67.671875 64.453125 -67.671875 C 64.859375 -67.671875 65.492188 -67.644531 66.359375 -67.59375 C 67.234375 -67.539062 68.207031 -67.382812 69.28125 -67.125 C 70.351562 -66.875 71.476562 -66.519531 72.65625 -66.0625 C 73.832031 -65.601562 74.984375 -64.960938 76.109375 -64.140625 L 69.359375 -32.53125 L 52.640625 -32.53125 C 52.429688 -38.875 51.863281 -43.296875 50.9375 -45.796875 C 50.019531 -48.304688 48.539062 -49.5625 46.5 -49.5625 C 45.476562 -49.5625 44.378906 -49.332031 43.203125 -48.875 C 42.023438 -48.414062 40.820312 -47.414062 39.59375 -45.875 L 29.765625 0 L -1.53125 0 Z M 12.4375 -65.984375 "/></g></g></g><g fill="#2853d6" fill-opacity="1"><g transform="translate(492.428328, 205.69529)"><g><path d="M 11.046875 -60.3125 C 16.265625 -62.863281 21.609375 -64.726562 27.078125 -65.90625 C 32.554688 -67.082031 38.671875 -67.671875 45.421875 -67.671875 C 51.972656 -67.671875 57.394531 -67.160156 61.6875 -66.140625 C 65.988281 -65.117188 69.414062 -63.632812 71.96875 -61.6875 C 74.53125 -59.738281 76.320312 -57.4375 77.34375 -54.78125 C 78.363281 -52.125 78.875 -49.109375 78.875 -45.734375 C 78.875 -43.785156 78.742188 -41.6875 78.484375 -39.4375 C 78.234375 -37.1875 77.953125 -35.296875 77.640625 -33.765625 L 70.4375 0 L 45.734375 0 L 42.96875 -9.828125 L 42.046875 -9.828125 C 38.773438 -6.242188 34.960938 -3.503906 30.609375 -1.609375 C 26.265625 0.285156 21.941406 1.234375 17.640625 1.234375 C 15.191406 1.234375 12.789062 0.875 10.4375 0.15625 C 8.082031 -0.5625 5.984375 -1.660156 4.140625 -3.140625 C 2.296875 -4.628906 0.8125 -6.523438 -0.3125 -8.828125 C -1.4375 -11.128906 -2 -13.914062 -2 -17.1875 C -2 -22.507812 -0.539062 -26.726562 2.375 -29.84375 C 5.289062 -32.96875 9.125 -35.320312 13.875 -36.90625 C 18.632812 -38.488281 24.007812 -39.484375 30 -39.890625 C 35.988281 -40.304688 42 -40.515625 48.03125 -40.515625 C 48.238281 -41.535156 48.492188 -42.988281 48.796875 -44.875 C 49.109375 -46.769531 49.265625 -48.4375 49.265625 -49.875 C 49.265625 -51.71875 48.773438 -53.429688 47.796875 -55.015625 C 46.828125 -56.597656 44.804688 -57.390625 41.734375 -57.390625 C 38.160156 -57.390625 35.523438 -56.335938 33.828125 -54.234375 C 32.140625 -52.140625 31.039062 -49.613281 30.53125 -46.65625 L 8.140625 -46.65625 Z M 46.34375 -33.296875 L 43.578125 -33.296875 C 40.609375 -33.296875 38.078125 -32.910156 35.984375 -32.140625 C 33.890625 -31.378906 32.203125 -30.382812 30.921875 -29.15625 C 29.640625 -27.925781 28.691406 -26.546875 28.078125 -25.015625 C 27.460938 -23.484375 27.15625 -21.945312 27.15625 -20.40625 C 27.15625 -17.945312 27.796875 -16.101562 29.078125 -14.875 C 30.359375 -13.65625 31.867188 -13.046875 33.609375 -13.046875 C 35.753906 -13.046875 37.875 -13.8125 39.96875 -15.34375 C 42.070312 -16.875 43.378906 -18.921875 43.890625 -21.484375 Z M 46.34375 -33.296875 "/></g></g></g><g fill="#2853d6" fill-opacity="1"><g transform="translate(574.063667, 205.69529)"><g><path d="M 63.84375 -103.125 L 95.296875 -103.125 L 73.34375 0 L 48.484375 0 L 45.734375 -9.828125 L 44.65625 -9.828125 C 44.039062 -8.898438 43.09375 -7.796875 41.8125 -6.515625 C 40.53125 -5.242188 38.914062 -4.019531 36.96875 -2.84375 C 35.03125 -1.664062 32.734375 -0.691406 30.078125 0.078125 C 27.421875 0.847656 24.351562 1.234375 20.875 1.234375 C 17.289062 1.234375 14.242188 0.695312 11.734375 -0.375 C 9.234375 -1.457031 7.1875 -2.914062 5.59375 -4.75 C 4.007812 -6.59375 2.859375 -8.816406 2.140625 -11.421875 C 1.429688 -14.035156 1.078125 -16.878906 1.078125 -19.953125 C 1.078125 -21.273438 1.175781 -23.394531 1.375 -26.3125 C 1.582031 -29.226562 2.066406 -32.453125 2.828125 -35.984375 C 3.597656 -39.515625 4.722656 -43.144531 6.203125 -46.875 C 7.691406 -50.613281 9.6875 -54.015625 12.1875 -57.078125 C 14.695312 -60.148438 17.789062 -62.679688 21.46875 -64.671875 C 25.15625 -66.671875 29.609375 -67.671875 34.828125 -67.671875 C 36.472656 -67.671875 38.210938 -67.515625 40.046875 -67.203125 C 41.890625 -66.898438 43.65625 -66.335938 45.34375 -65.515625 C 47.03125 -64.703125 48.535156 -63.523438 49.859375 -61.984375 C 51.191406 -60.453125 52.164062 -58.460938 52.78125 -56.015625 L 53.859375 -56.015625 Z M 45.109375 -52.640625 C 42.660156 -52.640625 40.613281 -51.28125 38.96875 -48.5625 C 37.332031 -45.851562 36.003906 -42.707031 34.984375 -39.125 C 33.960938 -35.550781 33.222656 -31.972656 32.765625 -28.390625 C 32.304688 -24.804688 32.078125 -22.144531 32.078125 -20.40625 C 32.078125 -18.363281 32.378906 -16.648438 32.984375 -15.265625 C 33.597656 -13.890625 34.773438 -13.203125 36.515625 -13.203125 C 37.546875 -13.203125 38.546875 -13.429688 39.515625 -13.890625 C 40.484375 -14.347656 41.398438 -14.910156 42.265625 -15.578125 C 43.140625 -16.242188 43.882812 -16.929688 44.5 -17.640625 C 45.113281 -18.359375 45.625 -18.972656 46.03125 -19.484375 L 52.015625 -47.421875 C 51.304688 -48.546875 50.363281 -49.695312 49.1875 -50.875 C 48.007812 -52.050781 46.648438 -52.640625 45.109375 -52.640625 Z M 45.109375 -52.640625 "/></g></g></g><g fill="#2853d6" fill-opacity="1"><g transform="translate(659.535236, 205.69529)"><g><path d="M 33.453125 -30.84375 C 33.046875 -28.59375 32.765625 -26.441406 32.609375 -24.390625 C 32.453125 -22.347656 32.375 -20.507812 32.375 -18.875 C 32.375 -17.957031 32.425781 -16.9375 32.53125 -15.8125 C 32.632812 -14.6875 32.863281 -13.632812 33.21875 -12.65625 C 33.582031 -11.6875 34.09375 -10.867188 34.75 -10.203125 C 35.414062 -9.535156 36.363281 -9.203125 37.59375 -9.203125 C 38.519531 -9.203125 39.566406 -9.507812 40.734375 -10.125 C 41.910156 -10.738281 43.085938 -11.609375 44.265625 -12.734375 C 45.441406 -13.859375 46.566406 -15.238281 47.640625 -16.875 C 48.722656 -18.507812 49.566406 -20.351562 50.171875 -22.40625 L 75.34375 -22.40625 L 71.359375 -5.984375 C 69.304688 -4.648438 66.953125 -3.523438 64.296875 -2.609375 C 61.640625 -1.691406 58.828125 -0.953125 55.859375 -0.390625 C 52.890625 0.171875 49.867188 0.582031 46.796875 0.84375 C 43.734375 1.101562 40.820312 1.234375 38.0625 1.234375 C 32.945312 1.234375 28.1875 0.773438 23.78125 -0.140625 C 19.382812 -1.066406 15.546875 -2.65625 12.265625 -4.90625 C 8.992188 -7.15625 6.410156 -10.144531 4.515625 -13.875 C 2.628906 -17.613281 1.6875 -22.25 1.6875 -27.78125 C 1.6875 -32.789062 2.476562 -37.695312 4.0625 -42.5 C 5.644531 -47.3125 8.300781 -51.582031 12.03125 -55.3125 C 15.769531 -59.050781 20.785156 -62.046875 27.078125 -64.296875 C 33.367188 -66.546875 41.222656 -67.671875 50.640625 -67.671875 C 60.867188 -67.671875 68.566406 -66.082031 73.734375 -62.90625 C 78.898438 -59.738281 81.484375 -54.78125 81.484375 -48.03125 C 81.484375 -45.269531 81.070312 -42.273438 80.25 -39.046875 C 79.4375 -35.828125 78.210938 -33.09375 76.578125 -30.84375 Z M 53.859375 -49.109375 C 53.859375 -52.273438 53.347656 -54.421875 52.328125 -55.546875 C 51.304688 -56.671875 50.078125 -57.234375 48.640625 -57.234375 C 47.003906 -57.234375 45.492188 -56.695312 44.109375 -55.625 C 42.734375 -54.550781 41.484375 -53.117188 40.359375 -51.328125 C 39.234375 -49.535156 38.207031 -47.488281 37.28125 -45.1875 C 36.363281 -42.882812 35.597656 -40.457031 34.984375 -37.90625 L 52.484375 -37.90625 C 52.679688 -39.132812 52.882812 -40.410156 53.09375 -41.734375 C 53.300781 -42.859375 53.476562 -44.085938 53.625 -45.421875 C 53.78125 -46.753906 53.859375 -47.984375 53.859375 -49.109375 Z M 53.859375 -49.109375 "/></g></g></g></svg>